HIERARCHY
ROOT Hips
{
     OFFSET 1.88212 96.90440 -13.34250
     CHANNELS 6 Xposition Yposition Zposition Zrotation Xrotation Yrotation
     JOINT Spine
     {
          OFFSET 0.00000 11.89050 0.00000
          CHANNELS 3 Zrotation Xrotation Yrotation
          JOINT Spine1
          {
               OFFSET -0.00000 25.65740 0.12766
               CHANNELS 3 Zrotation Xrotation Yrotation
               JOINT HEad
               {
                    OFFSET 0.00000 8.73416 0.01134
                    CHANNELS 3 Zrotation Xrotation Yrotation
                    End Site
                    {
                         OFFSET -0.29000 12.77420 2.51395
                    }
               }
               JOINT LeftShoulder1
               {
                    OFFSET 8.99000 -0.36225 -0.22000
                    CHANNELS 3 Zrotation Xrotation Yrotation
                    JOINT LeftArm
                    {
                         OFFSET 10.28270 -0.00338 0.32212
                         CHANNELS 3 Zrotation Xrotation Yrotation
                         JOINT LeftForeArm
                         {
                              OFFSET 32.76690 0.09914 -1.42434
                              CHANNELS 3 Zrotation Xrotation Yrotation
                              JOINT LeftHand
                              {
                                   OFFSET 27.56430 0.08536 1.02216
                                   CHANNELS 3 Zrotation Xrotation Yrotation
                                   End Site
                                   {
                                        OFFSET 16.74430 -0.60000 1.50291
                                   }
                              }
                         }
                    }
               }
               JOINT RightShoulder
               {
                    OFFSET -8.99000 -0.36225 -0.22000
                    CHANNELS 3 Zrotation Xrotation Yrotation
                    JOINT RightArm
                    {
                         OFFSET -10.28270 -0.00338 0.32212
                         CHANNELS 3 Zrotation Xrotation Yrotation
                         JOINT RightForeArm
                         {
                              OFFSET -32.89710 0.09914 -1.42434
                              CHANNELS 3 Zrotation Xrotation Yrotation
                              JOINT RightHand
                              {
                                   OFFSET -27.49210 0.08536 1.02216
                                   CHANNELS 3 Zrotation Xrotation Yrotation
                                   End Site
                                   {
                                        OFFSET -16.63120 -0.60000 1.50291
                                   }
                              }
                         }
                    }
               }
          }
     }
     JOINT LeftUpLeg
     {
          OFFSET 8.94580 -8.66707 0.10165
          CHANNELS 3 Zrotation Xrotation Yrotation
          JOINT LeftLeg
          {
               OFFSET 0.00000 -44.42270 1.37270
               CHANNELS 3 Zrotation Xrotation Yrotation
               JOINT LeftFoot
               {
                    OFFSET -0.25355 -42.09240 -1.46059
                    CHANNELS 3 Zrotation Xrotation Yrotation
                    JOINT LeftToes
                    {
                         OFFSET -0.04000 -4.41509 8.49910
                         CHANNELS 3 Zrotation Xrotation Yrotation
                         End Site
                         {
                              OFFSET 0.08000 -0.04745 9.77979
                         }
                    }
               }
          }
     }
     JOINT RightUpLeg
     {
          OFFSET -8.94580 -8.66707 0.10165
          CHANNELS 3 Zrotation Xrotation Yrotation
          JOINT RightLeg
          {
               OFFSET 0.00000 -44.42270 1.37270
               CHANNELS 3 Zrotation Xrotation Yrotation
               JOINT RightFoot
               {
                    OFFSET 0.25355 -42.09240 -1.46059
                    CHANNELS 3 Zrotation Xrotation Yrotation
                    JOINT RightToes
                    {
                         OFFSET 0.04000 -4.41509 8.49910
                         CHANNELS 3 Zrotation Xrotation Yrotation
                         End Site
                         {
                              OFFSET -0.08000 -0.13745 9.77979
                         }
                    }
               }
          }
     }
}
MOTION
Frames: 10
Frame Time: 0.01667
-1068.96045 82.92632 852.60809 11.81637 -2.28795 58.20368 8.03718 20.55279 4.46620 0.02678 -0.01590 -0.00768 -21.10363 27.46929 24.70090 8.50271 -3.02970 5.33130 14.78264 -81.16109 29.41234 -40.21338 48.99393 -99.81358 7.09955 11.96813 -1.45440 33.12312 1.77444 10.71799 27.96327 -18.26657 53.71241 23.84888 37.07705 105.73310 -5.51636 -1.04107 8.37646 13.39016 -18.41835 1.83058 8.46144 31.71378 2.90663 42.93962 -0.11534 -0.01776 -73.87093 -10.94081 0.04831 -26.04989 -13.46505 -18.96063 -52.32153 59.62502 66.91458 12.47828 -0.27473 0.26944 11.28498 -15.70654 -20.69930 
-1071.69897 81.60556 853.85504 11.21076 -1.18487 59.26653 6.16479 20.34058 5.93657 0.02252 -0.01327 -0.00798 -25.04083 25.44516 27.41900 9.41021 -3.81943 4.42799 12.54129 -79.94811 28.97435 -39.79851 48.69588 -101.25323 5.77691 10.13837 4.85802 34.23594 0.76106 10.48097 28.89381 -17.63313 53.84177 23.93633 37.60123 105.66342 -6.39987 8.00378 4.95914 15.46942 -21.63702 4.87623 8.53786 32.09789 -0.31358 50.59142 -0.10833 -0.01214 -81.77861 -10.18199 0.05934 -27.68139 -9.71258 -16.79507 -45.73825 54.49861 66.65234 13.73526 -0.17822 0.09303 5.10595 -34.09687 -27.72126 
-1074.43542 80.26952 855.11072 10.48123 -0.17172 60.28690 4.71502 19.91251 7.16171 0.02309 -0.01182 -0.00978 -28.51434 23.56749 29.67035 9.85292 -4.31852 3.51288 11.78222 -79.05193 29.44578 -39.28737 48.41944 -102.53833 6.10585 12.34039 -0.77036 34.36024 -0.08956 9.88535 32.57769 -13.80913 56.30721 20.95215 37.03540 104.56135 -6.20707 3.67849 6.46778 17.62440 -24.74482 8.00031 8.49098 32.40346 -3.36317 57.89502 -0.10094 -0.00831 -89.11798 -9.05951 0.07715 -28.40163 -5.43825 -13.71111 -35.06024 49.31705 60.35339 18.21389 -0.33924 -0.00964 4.38766 -28.75525 -31.97831 
-1077.11877 78.96587 856.35840 9.65098 0.71385 61.24946 3.65679 19.35706 8.16844 0.02017 -0.00862 -0.00950 -31.50291 21.80070 31.52488 9.94802 -4.51308 2.57429 12.35365 -78.57596 30.92143 -38.89213 48.21371 -103.34397 5.67119 10.77366 3.02216 34.08112 -0.63837 9.32165 35.28286 -11.69261 57.98842 19.34789 36.60030 104.15173 -6.30151 8.63931 3.95973 19.77435 -27.62948 11.10637 8.37702 32.53121 -6.19933 64.77319 -0.09389 -0.00869 -95.85146 -8.15759 -0.04387 -28.37628 -0.92476 -9.86465 -24.33958 43.35155 51.01469 16.94477 -0.08293 0.01227 -4.95782 -44.13826 -32.63299 
-1079.71436 77.71647 857.59485 8.76331 1.44234 62.14704 2.95461 18.75406 8.97241 0.01635 -0.00556 -0.01001 -34.02545 20.10818 33.05287 9.82915 -4.38263 1.65182 14.01178 -78.51127 33.44006 -38.64344 48.16082 -103.95972 6.05901 11.63791 -0.53974 33.38123 -0.92671 8.63269 37.63000 -10.52837 59.45444 18.59029 36.35421 104.07780 -5.92351 5.95563 4.40384 21.88188 -30.19807 14.11683 8.25854 32.39942 -8.87591 71.10441 -0.08666 -0.01291 -101.54037 -6.81816 -0.03368 -27.80354 3.64857 -5.33810 -15.39941 36.42904 40.72867 16.98975 -0.09993 -0.02212 -14.88317 -43.96459 -32.97901 
-1082.12231 76.69295 858.81500 7.86522 1.90373 63.02018 2.67238 18.19675 9.53020 0.01306 -0.00325 -0.01120 -36.13667 18.50426 34.34214 9.50744 -3.98082 0.71781 16.68862 -78.78637 37.01755 -38.55117 48.29357 -104.32748 5.89647 10.25460 1.53042 32.52771 -0.94455 7.81387 39.65654 -9.83759 60.88486 18.27441 36.28430 104.04806 -5.75910 8.84353 2.47263 23.84802 -32.25393 16.83030 8.16845 31.86843 -11.40411 76.82848 -0.07816 -0.01839 -106.37846 -5.66589 -0.15970 -26.90233 7.34905 -0.17956 -10.61911 30.98473 31.26281 15.64988 -0.10110 0.00048 -15.11338 -52.65796 -23.89710 
-1084.26746 76.00939 859.96289 7.02817 2.07286 63.88403 2.80013 17.74988 9.82538 0.01130 -0.00145 -0.01249 -37.90732 17.02331 35.47803 8.97806 -3.31810 -0.15828 20.22577 -79.33406 41.59016 -38.62217 48.71298 -104.67426 6.25003 10.35572 -0.76052 31.69505 -0.68435 6.82655 41.33189 -9.38907 62.32215 18.17554 36.37881 104.05801 -5.66311 7.44034 2.43660 25.45498 -33.66097 19.03869 8.11977 30.85621 -13.76716 81.94259 -0.06840 -0.02352 -110.15234 -4.07341 -0.24745 -26.09447 9.94366 4.52983 -7.29656 26.54521 22.47771 15.83561 -0.10279 -0.01889 -12.58316 -45.53848 -25.79440 
-1086.13806 75.70591 861.02368 6.37527 1.98692 64.74019 3.25522 17.47395 9.85414 0.01028 -0.00142 -0.01362 -39.40756 15.71637 36.53206 8.22160 -2.55641 -0.93316 24.17394 -79.98019 46.67758 -38.86398 49.42693 -104.96146 6.10447 9.23782 0.31240 31.02430 -0.25660 5.84327 42.56633 -9.09768 63.47220 18.14358 36.59652 104.17748 -5.65375 9.18940 1.12466 26.51257 -34.34182 20.60370 8.11467 29.34042 -15.98455 86.45859 -0.05882 -0.02770 -99.10262 6.05335 -7.38295 -25.40409 11.56789 8.83213 -3.42465 24.48728 13.16803 12.79714 -0.16665 0.03636 -9.42608 -47.56903 -20.01222 
-1087.72375 75.64558 861.99951 5.92601 1.68303 65.58350 4.00037 17.35260 9.62022 0.01026 -0.00078 -0.01454 -40.72567 14.64375 37.57255 7.34708 -1.72031 -1.66019 28.66965 -80.67957 52.46473 -39.18459 50.41905 -105.27328 6.39802 9.33422 -1.22012 30.30947 0.26573 4.85159 43.65303 -8.85907 64.33723 18.12233 36.88315 104.40324 -5.88426 8.46841 1.05326 27.06343 -34.37350 21.54623 8.16420 27.37437 -18.02974 90.31023 -0.05082 -0.02797 -108.86394 4.94031 -3.65468 -24.93867 12.36994 12.74816 1.29000 23.65641 4.34715 11.86177 -0.14219 0.01694 -8.14781 -46.16801 -16.94578 
-1089.05273 75.73714 862.90906 5.68399 1.20218 66.40094 4.99994 17.33783 9.15580 0.01075 -0.00149 -0.01383 -41.91146 13.87349 38.64059 6.47477 -0.98138 -2.20209 32.37352 -81.38794 57.54476 -39.58246 51.59001 -105.48359 6.19751 8.84305 -0.80913 29.73477 0.75041 4.00565 44.46239 -8.61751 64.73586 18.06477 37.19987 104.70943 -6.06192 9.51652 0.35718 27.20436 -33.90385 21.96225 8.65808 24.98288 -20.01259 90.03789 -0.00396 -0.00841 -109.28503 7.63038 -3.43041 -24.78720 12.54554 16.29015 6.83688 23.48567 -3.59414 9.15820 -0.17859 0.01317 -6.55807 -47.60767 -12.45342 
